<svg xmlns="http://www.w3.org/2000/svg" width="1180" height="1390" viewBox="0 0 1180 1390" role="img" aria-labelledby="title desc">
<title id="title">Cognibrain benchmark results</title>
<desc id="desc">Percent charts comparing current Cognibrain results with public benchmark baselines and Benchmark Arena systems.</desc>
<style>
      text { font-family: ui-sans-serif, system-ui, -apple-system, BlinkMacSystemFont, "Segoe UI", sans-serif; fill: #152033; }
      .title { font-size: 30px; font-weight: 760; }
      .subtitle { font-size: 14px; fill: #586273; }
      .section-title { font-size: 18px; font-weight: 760; }
      .section-note { font-size: 12px; fill: #667085; }
      .label { font-size: 13px; font-weight: 620; }
      .detail { font-size: 11px; fill: #667085; }
      .tick { font-size: 11px; fill: #748094; }
      .value { font-size: 12px; font-weight: 720; }
      .grid { stroke: #dfe5ed; stroke-width: 1; }
      .axis { stroke: #b8c2d0; stroke-width: 1; }
      .panel { fill: #ffffff; stroke: #d9e0ea; stroke-width: 1; }
      .bar-cognibrain { fill: #087f8c; }
      .bar-comparison { fill: #61748a; }
      .bar-baseline { fill: #a7b3c2; }
      .bar-blocked { fill: #d7dde6; }
      .marker { fill: #f59e0b; }
    </style>
<rect width="1180" height="1390" fill="#f6f8fb"/>
<text class="title" x="36" y="46">Benchmark Results</text>
<text class="subtitle" x="36" y="72">Fresh local run, percent scale. Sources: public dataset reports, Benchmark Arena, and CogniCodeBench artifacts.</text>
<text class="subtitle" x="36" y="94">Generated 2026-05-28 UTC; public datasets 12:56Z-12:59Z, arena 12:52Z, cognicode 12:52Z</text>
<rect class="panel" x="36" y="128" width="1108" height="302" rx="10"/>
<text class="section-title" x="60" y="162">Public Benchmark Datasets</text>
<text class="section-note" x="60" y="184">Cognibrain compared with the strongest local baseline on the same public dataset artifact.</text>
<line class="grid" x1="260" y1="202" x2="260" y2="404"/>
<text class="tick" x="250" y="194">0%</text>
<line class="grid" x1="450" y1="202" x2="450" y2="404"/>
<text class="tick" x="440" y="194">25%</text>
<line class="grid" x1="640" y1="202" x2="640" y2="404"/>
<text class="tick" x="630" y="194">50%</text>
<line class="grid" x1="830" y1="202" x2="830" y2="404"/>
<text class="tick" x="820" y="194">75%</text>
<line class="grid" x1="1020" y1="202" x2="1020" y2="404"/>
<text class="tick" x="1010" y="194">100%</text>
<line class="axis" x1="260" y1="404" x2="1020" y2="404"/>
<text class="label" x="60" y="228">LoCoMo</text>
<text class="detail" x="60" y="248">Cognibrain 902/1536</text>
<rect class="bar-baseline" x="260" y="236" width="330.0260416666667" height="14" rx="4"/>
<rect class="bar-cognibrain" x="260" y="214" width="446.30208333333337" height="18" rx="4"/>
<text class="value" x="716.3020833333334" y="228">58.7%</text>
<text class="detail" x="600.0260416666667" y="248">Keyword Only 43.4%</text>
<text class="label" x="60" y="290">LongMemEval-S</text>
<text class="detail" x="60" y="310">Cognibrain 498/500</text>
<rect class="bar-baseline" x="260" y="298" width="752.4" height="14" rx="4"/>
<rect class="bar-cognibrain" x="260" y="276" width="756.96" height="18" rx="4"/>
<text class="value" x="1026.96" y="290">99.6%</text>
<text class="detail" x="1022.4" y="310">Keyword Only 99.0%</text>
<text class="label" x="60" y="352">BEAM</text>
<text class="detail" x="60" y="372">Cognibrain 386/400</text>
<rect class="bar-baseline" x="260" y="360" width="623.1999999999999" height="14" rx="4"/>
<rect class="bar-cognibrain" x="260" y="338" width="733.4" height="18" rx="4"/>
<text class="value" x="1003.4" y="352">96.5%</text>
<text class="detail" x="893.1999999999999" y="372">Keyword Only 82.0%</text>
<rect class="panel" x="36" y="456" width="1108" height="396" rx="10"/>
<text class="section-title" x="60" y="490">Benchmark Arena Systems</text>
<text class="section-note" x="60" y="512">Same scenario stream; proof levels are shown next to each row.</text>
<line class="grid" x1="260" y1="530" x2="260" y2="826"/>
<text class="tick" x="250" y="522">0%</text>
<line class="grid" x1="450" y1="530" x2="450" y2="826"/>
<text class="tick" x="440" y="522">25%</text>
<line class="grid" x1="640" y1="530" x2="640" y2="826"/>
<text class="tick" x="630" y="522">50%</text>
<line class="grid" x1="830" y1="530" x2="830" y2="826"/>
<text class="tick" x="820" y="522">75%</text>
<line class="grid" x1="1020" y1="530" x2="1020" y2="826"/>
<text class="tick" x="1010" y="522">100%</text>
<line class="axis" x1="260" y1="826" x2="1020" y2="826"/>
<text class="label" x="60" y="555">Cognibrain</text>
<text class="detail" x="60" y="570">same-run-full</text>
<rect class="bar-cognibrain" x="260" y="543" width="741" height="18" rx="4"/>
<text class="value" x="1011" y="557">97.5%</text>
<text class="label" x="60" y="595">Graphiti/Zep</text>
<text class="detail" x="60" y="610">same-run-api-shape</text>
<rect class="bar-comparison" x="260" y="583" width="506.69199999999995" height="18" rx="4"/>
<text class="value" x="776.692" y="597">66.7%</text>
<text class="label" x="60" y="635">Zep</text>
<text class="detail" x="60" y="650">same-run-api-shape</text>
<rect class="bar-comparison" x="260" y="623" width="506.69199999999995" height="18" rx="4"/>
<text class="value" x="776.692" y="637">66.7%</text>
<text class="label" x="60" y="675">GBrain</text>
<text class="detail" x="60" y="690">same-run-api-shape</text>
<rect class="bar-comparison" x="260" y="663" width="506.69199999999995" height="18" rx="4"/>
<text class="value" x="776.692" y="677">66.7%</text>
<text class="label" x="60" y="715">Cognee</text>
<text class="detail" x="60" y="730">same-run-api-shape</text>
<rect class="bar-comparison" x="260" y="703" width="456" height="18" rx="4"/>
<text class="value" x="726" y="717">60.0%</text>
<text class="label" x="60" y="755">Mem0</text>
<text class="detail" x="60" y="770">same-run-api-shape</text>
<rect class="bar-comparison" x="260" y="743" width="114" height="18" rx="4"/>
<text class="value" x="384" y="757">15.0%</text>
<text class="label" x="60" y="795">LangMem</text>
<text class="detail" x="60" y="810">credential-blocked</text>
<rect class="bar-blocked" x="260" y="783" width="4" height="18" rx="4"/>
<circle class="marker" cx="265" cy="792" r="5"/>
<text class="value" x="274" y="797">0.0%</text>
<rect class="panel" x="36" y="878" width="1108" height="476" rx="10"/>
<text class="section-title" x="60" y="912">CogniCodeBench Ablation</text>
<text class="section-note" x="60" y="934">Engineering-memory score across current full run, ablations, and local baselines.</text>
<line class="grid" x1="260" y1="952" x2="260" y2="1328"/>
<text class="tick" x="250" y="944">0%</text>
<line class="grid" x1="450" y1="952" x2="450" y2="1328"/>
<text class="tick" x="440" y="944">25%</text>
<line class="grid" x1="640" y1="952" x2="640" y2="1328"/>
<text class="tick" x="630" y="944">50%</text>
<line class="grid" x1="830" y1="952" x2="830" y2="1328"/>
<text class="tick" x="820" y="944">75%</text>
<line class="grid" x1="1020" y1="952" x2="1020" y2="1328"/>
<text class="tick" x="1010" y="944">100%</text>
<line class="axis" x1="260" y1="1328" x2="1020" y2="1328"/>
<text class="label" x="60" y="977">Cognibrain full</text>
<text class="detail" x="60" y="992">1000 scenarios</text>
<rect class="bar-cognibrain" x="260" y="965" width="760" height="18" rx="4"/>
<text class="value" x="1030" y="979">100.0%</text>
<text class="label" x="60" y="1017">Without temporal</text>
<text class="detail" x="60" y="1032">ablation</text>
<rect class="bar-comparison" x="260" y="1005" width="747.08" height="18" rx="4"/>
<text class="value" x="1017.08" y="1019">98.3%</text>
<text class="label" x="60" y="1057">Procedure only</text>
<text class="detail" x="60" y="1072">baseline</text>
<rect class="bar-comparison" x="260" y="1045" width="380" height="18" rx="4"/>
<text class="value" x="650" y="1059">50.0%</text>
<text class="label" x="60" y="1097">Keyword only</text>
<text class="detail" x="60" y="1112">baseline</text>
<rect class="bar-comparison" x="260" y="1085" width="253.08" height="18" rx="4"/>
<text class="value" x="523.08" y="1099">33.3%</text>
<text class="label" x="60" y="1137">Graph only</text>
<text class="detail" x="60" y="1152">baseline</text>
<rect class="bar-comparison" x="260" y="1125" width="223.44" height="18" rx="4"/>
<text class="value" x="493.44" y="1139">29.4%</text>
<text class="label" x="60" y="1177">Without corrections</text>
<text class="detail" x="60" y="1192">ablation</text>
<rect class="bar-comparison" x="260" y="1165" width="198.36" height="18" rx="4"/>
<text class="value" x="468.36" y="1179">26.1%</text>
<text class="label" x="60" y="1217">Temporal only</text>
<text class="detail" x="60" y="1232">baseline</text>
<rect class="bar-comparison" x="260" y="1205" width="105.64000000000001" height="18" rx="4"/>
<text class="value" x="375.64" y="1219">13.9%</text>
<text class="label" x="60" y="1257">Vector only</text>
<text class="detail" x="60" y="1272">baseline</text>
<rect class="bar-comparison" x="260" y="1245" width="92.72" height="18" rx="4"/>
<text class="value" x="362.72" y="1259">12.2%</text>
<text class="label" x="60" y="1297">No memory</text>
<text class="detail" x="60" y="1312">baseline</text>
<rect class="bar-comparison" x="260" y="1285" width="4" height="18" rx="4"/>
<text class="value" x="274" y="1299">0.0%</text>
</svg>
